{
  "accessors": [
    {
      "bufferView": 2,
      "componentType": 5126,
      "count": 1359,
      "max": [
        0.9997929930686951,
        0.4328339993953705,
        0.9995920062065125
      ],
      "min": [
        -0.9995970129966736,
        -0.4680210053920746,
        -0.9992139935493469
      ],
      "type": "VEC3"
    },
    {
      "bufferView": 2,
      "byteOffset": 16308,
      "componentType": 5126,
      "count": 1359,
      "max": [
        0.9996939301490784,
        0.9999998807907104,
        0.9995774030685425
      ],
      "min": [
        -0.9994928240776062,
        -0.9999998807907104,
        -0.9990869164466858
      ],
      "type": "VEC3"
    },
    {
      "bufferView": 3,
      "componentType": 5126,
      "count": 1359,
      "max": [
        0.9955801367759705,
        0.9999914765357971,
        0.9519572854042053,
        1.0
      ],
      "min": [
        -0.9419065713882446,
        -0.7966675758361816,
        -0.9438084363937378,
        1.0
      ],
      "type": "VEC4"
    },
    {
      "bufferView": 1,
      "componentType": 5126,
      "count": 1359,
      "max": [
        0.9846674203872681,
        0.998046875
      ],
      "min": [
        0.001953125,
        0.001953125
      ],
      "type": "VEC2"
    },
    {
      "bufferView": 0,
      "componentType": 5125,
      "count": 7296,
      "type": "SCALAR"
    }
  ],
  "asset": {
    "extras": {
      "author": "dreamventure.nvk (https://sketchfab.com/dreamventure.nvk)",
      "license": "CC-BY-4.0 (http://creativecommons.org/licenses/by/4.0/)",
      "source": "https://sketchfab.com/3d-models/echo-dot--alexa-8c51d37795264cc99961417a56b3c1c0",
      "title": "Echo Dot_ Alexa!"
    },
    "generator": "Sketchfab-13.12.0",
    "version": "2.0"
  },
  "bufferViews": [
    {
      "buffer": 0,
      "byteLength": 29184,
      "name": "floatBufferViews",
      "target": 34963
    },
    {
      "buffer": 0,
      "byteLength": 10872,
      "byteOffset": 29184,
      "byteStride": 8,
      "name": "floatBufferViews",
      "target": 34962
    },
    {
      "buffer": 0,
      "byteLength": 32616,
      "byteOffset": 40056,
      "byteStride": 12,
      "name": "floatBufferViews",
      "target": 34962
    },
    {
      "buffer": 0,
      "byteLength": 21744,
      "byteOffset": 72672,
      "byteStride": 16,
      "name": "floatBufferViews",
      "target": 34962
    }
  ],
  "buffers": [
    {
      "byteLength": 94416,
      "uri": "scene.bin"
    }
  ],
  "images": [
    {
      "uri": "textures/EchoDot_baseColor.jpeg"
    },
    {
      "uri": "textures/EchoDot_metallicRoughness.png"
    },
    {
      "uri": "textures/EchoDot_emissive.jpeg"
    },
    {
      "uri": "textures/EchoDot_normal.png"
    }
  ],
  "materials": [
    {
      "doubleSided": true,
      "emissiveFactor": [
        1.0,
        1.0,
        1.0
      ],
      "emissiveTexture": {
        "index": 2
      },
      "name": "EchoDot",
      "normalTexture": {
        "index": 3
      },
      "occlusionTexture": {
        "index": 1
      },
      "pbrMetallicRoughness": {
        "baseColorTexture": {
          "index": 0
        },
        "metallicRoughnessTexture": {
          "index": 1
        },
        "roughnessFactor": 0.9562972353452627
      }
    }
  ],
  "meshes": [
    {
      "name": "EchoDot_EchoDot_0",
      "primitives": [
        {
          "attributes": {
            "NORMAL": 1,
            "POSITION": 0,
            "TANGENT": 2,
            "TEXCOORD_0": 3
          },
          "indices": 4,
          "material": 0,
          "mode": 4
        }
      ]
    }
  ],
  "nodes": [
    {
      "children": [
        1
      ],
      "matrix": [
        0.04712434485554695,
        0.0,
        0.0,
        0.0,
        0.0,
        1.0463706535800854e-17,
        -0.04712434485554695,
        0.0,
        0.0,
        0.04712434485554695,
        1.0463706535800854e-17,
        0.0,
        0.0,
        0.0,
        0.0,
        1.0
      ],
      "name": "Sketchfab_model"
    },
    {
      "children": [
        2
      ],
      "matrix": [
        1.0,
        0.0,
        0.0,
        0.0,
        0.0,
        0.0,
        1.0,
        0.0,
        0.0,
        -1.0,
        0.0,
        0.0,
        0.0,
        0.0,
        0.0,
        1.0
      ],
      "name": "EchoDot.fbx"
    },
    {
      "children": [
        3
      ],
      "name": "RootNode"
    },
    {
      "children": [
        4
      ],
      "name": "EchoDot"
    },
    {
      "mesh": 0,
      "name": "EchoDot_EchoDot_0"
    }
  ],
  "samplers": [
    {
      "magFilter": 9729,
      "minFilter": 9987,
      "wrapS": 10497,
      "wrapT": 10497
    }
  ],
  "scene": 0,
  "scenes": [
    {
      "name": "Sketchfab_Scene",
      "nodes": [
        0
      ]
    }
  ],
  "textures": [
    {
      "sampler": 0,
      "source": 0
    },
    {
      "sampler": 0,
      "source": 1
    },
    {
      "sampler": 0,
      "source": 2
    },
    {
      "sampler": 0,
      "source": 3
    }
  ]
}
